# xmcd
#
# Track frame offsets: 
#        150
#        17373
#        32963
#        50791
#        73663
#        91415
#        106665
#        127041
#        146596
#        163146
#        180385
#        198790
#        225761
#        247145
#        261364
#        279251
#
# Disc length: 3963 seconds
#
# Revision: 1
# Processed by: cddbd v1.5.2PL0 Copyright (c) Steve Scherf et al.
# Submitted via: ExactAudioCopyFreeDBPlugin 1.0
#
DISCID=da0f7910
DTITLE=Various Artist - Most Wanted Vol.7
DYEAR=2006
DGENRE=Hip-Hop
TTITLE0=Eric B. and Rakim - Paid In Full
TTITLE1=Beastie Boys - Hold It Now, Hit It
TTITLE2=Diamond D - Cream N Sunshine
TTITLE3=Rakim - When I'm Flowin
TTITLE4=Black Sheep - Black With N.V. (No Vision)
TTITLE5=Redman - How To Roll A Blunt
TTITLE6=Blackstreet - No Diggity (feat. Dr. Dre and Queen Pen)
TTITLE7=Intelligent Hoodlum - Underground
TTITLE8=EPMD - I'm Mad
TTITLE9=Foxy Brown - Get Me Home (feat. Blackstreet)
TTITLE10=LL Cool J - Phenomenon
TTITLE11=Method Man - Bring The Pain [Chemical Mix]
TTITLE12=X-Clan - Grand Verbalizer, What Time Is It
TTITLE13=Redman - Whateva Man
TTITLE14=Montell Jordan - This Is How We Do It
TTITLE15=Slick Rick - Children's Story
EXTD=
EXTT0=
EXTT1=
EXTT2=
EXTT3=
EXTT4=
EXTT5=
EXTT6=
EXTT7=
EXTT8=
EXTT9=
EXTT10=
EXTT11=
EXTT12=
EXTT13=
EXTT14=
EXTT15=
PLAYORDER=
